<svg width="96" height="99" viewBox="0 0 96 99" fill="none" xmlns="http://www.w3.org/2000/svg">
<path d="M0 70.0756V0H46.2273V12.2153H14.7614V28.913H43.1591V41.1283H14.7614V70.0756H0Z" fill="#44CFAE"/>
<path d="M42.9318 99V28.9244H70.4773C75.7727 28.9244 80.2841 29.9395 84.0114 31.9697C87.7386 33.9771 90.5795 36.7714 92.5341 40.3528C94.5114 43.9113 95.5 48.0173 95.5 52.6707C95.5 57.3242 94.5 61.4302 92.5 64.9887C90.5 68.5472 87.6023 71.3188 83.8068 73.3033C80.0341 75.2879 75.4659 76.2802 70.1023 76.2802H52.5455V64.407H67.7159C70.5568 64.407 72.8977 63.9166 74.7386 62.9357C76.6023 61.932 77.9886 60.552 78.8977 58.7955C79.8295 57.0162 80.2955 54.9747 80.2955 52.6707C80.2955 50.344 79.8295 48.3138 78.8977 46.5802C77.9886 44.8237 76.6023 43.4665 74.7386 42.5084C72.875 41.5275 70.5114 41.0371 67.6477 41.0371H57.6932V99H42.9318Z" fill="#44CFAE"/>
</svg>
